<svg xmlns="http://www.w3.org/2000/svg" viewBox="0 0 97.82 158.36"><defs><style>.cls-1{fill:#ceaa9a;}.cls-2,.cls-3{fill:#ebcdc3;}.cls-3,.cls-4{stroke:#ebcdc3;stroke-miterlimit:10;stroke-width:0.25px;}.cls-4{fill:#fcc;}.cls-5{fill:#a17a69;}</style></defs><title>LOGO ALEX&amp;apos;CEPTION</title><g id="A"><path class="cls-1" d="M173,84.83h-72.2L91,201.67l36,.27,3-21.05h17.87l2.68,21.05h38.31Zm-41.73,62.89c.54-4.27,1.07-7.46,1.86-11.31.64-3.13,1.47-6.7,2.61-11.64.78-3.36,1.7-7.35,2.82-12.27q.18-.77.36-1.56c.07.53.14,1.06.2,1.57.66,5.09,1.19,9.07,1.65,12.44.65,4.77,1.18,8.34,1.82,12.13.52,3.09,1.12,6.33,1.92,10.51Z" transform="translate(-90.99 -43.58)"/></g><g id="soleil"><path class="cls-2" d="M151.22,112.57A12.56,12.56,0,0,1,140.75,125c-.46-3.37-1-7.35-1.65-12.44-.06-.51-.13-1-.2-1.57q-.18.8-.36,1.56c-1.12,4.92-2,8.91-2.82,12.27a12.56,12.56,0,1,1,15.5-12.2Z" transform="translate(-90.99 -43.58)"/><line class="cls-3" x1="47.58" y1="41.25" x2="47.77" y2="53.15"/><line class="cls-4" x1="56.15" y1="54.5" x2="62.39" y2="47.41"/><line class="cls-3" x1="63.4" y1="61.21" x2="72.05" y2="57.28"/><line class="cls-3" x1="33.26" y1="62.04" x2="24.61" y2="58.11"/><line class="cls-3" x1="63.78" y1="70.83" x2="72.09" y2="72.37"/><line class="cls-3" x1="32.51" y1="69.72" x2="24.19" y2="71.26"/><line class="cls-3" x1="60.23" y1="78.52" x2="67.73" y2="84.22"/><line class="cls-3" x1="36" y1="78.93" x2="28.51" y2="84.64"/><line class="cls-3" x1="38.66" y1="55.25" x2="31.58" y2="48.73"/></g><g id="ocean"><path class="cls-1" d="M94.06,163.84c7.09-.74,12.12-9.15,19.22-8.46a10.37,10.37,0,0,0-3.8,2.81,3.59,3.59,0,0,0-.09,4.41,4.61,4.61,0,0,0,1.13.82,16.44,16.44,0,0,0,18.16-1.7c1.77-1.48,3.2-3.32,5-4.78s4.11-2.52,6.35-2a7.78,7.78,0,0,0-4,9.15c2.86,1.68,6.5.91,9.62-.2s6.35-2.54,9.62-2c1.45.23,2.81.83,4.23,1.2,7.76,2,16.39-2.9,23.82.15" transform="translate(-90.99 -43.58)"/><path class="cls-5" d="M94.05,163.72A13.07,13.07,0,0,0,99,161.91c1.52-.89,2.94-2,4.39-3a30.63,30.63,0,0,1,4.57-2.88,10.44,10.44,0,0,1,5.4-1.15L115,155l-1.45.8h0c-1.59.83-3.23,1.74-4,3.22a3.43,3.43,0,0,0-.28,2.32,2.69,2.69,0,0,0,1.57,1.66,15.87,15.87,0,0,0,10.35,1.61,16.19,16.19,0,0,0,5-1.8,17.11,17.11,0,0,0,4.15-3.37,24.3,24.3,0,0,1,4.18-3.75,7.53,7.53,0,0,1,5.6-1.28l1.48.32-1.38.62a7.29,7.29,0,0,0-3.76,8.52v0l-.22-.27a8.27,8.27,0,0,0,5.54.8,30.77,30.77,0,0,0,5.72-1.67,19.79,19.79,0,0,1,6-1.35,9.94,9.94,0,0,1,3.07.42c1,.29,1.92.66,2.87.93,3.86,1.08,8,.4,11.91-.14a43.3,43.3,0,0,1,6-.53,15.2,15.2,0,0,1,5.93,1.07l0,.05a15.1,15.1,0,0,0-5.91-.95,43.17,43.17,0,0,0-6,.64c-3.94.62-8.05,1.41-12.08.37-1-.26-1.94-.62-2.9-.87a9.47,9.47,0,0,0-2.89-.35,19.12,19.12,0,0,0-5.74,1.43,31.47,31.47,0,0,1-5.84,1.82,12.1,12.1,0,0,1-3.13.15,8.22,8.22,0,0,1-3.06-1l-.17-.1-.05-.18v0a8.29,8.29,0,0,1,4.31-9.73l.1.94a6.66,6.66,0,0,0-4.86,1.15,23.27,23.27,0,0,0-4,3.61,18.34,18.34,0,0,1-4.37,3.54,17.22,17.22,0,0,1-5.32,1.91,16.84,16.84,0,0,1-11-1.71,5.48,5.48,0,0,1-1.24-.87,3,3,0,0,1-.81-1.4,4.39,4.39,0,0,1,.34-3c1-1.88,2.81-2.81,4.4-3.67h0l.18.94a9.55,9.55,0,0,0-5,.89,29.84,29.84,0,0,0-4.55,2.66c-1.48,1-3,2-4.54,2.87A13.21,13.21,0,0,1,94.07,164Z" transform="translate(-90.99 -43.58)"/><path class="cls-1" d="M184.78,170.49l-8.32.7a4.28,4.28,0,0,1-2.36-.25c-.86-.45-1.3-1.42-1.93-2.16-2.16-2.57-6.37-2.34-8.78-4.68a20.76,20.76,0,0,1-2.46-3.64,11.69,11.69,0,0,0-14.94-3.6,6.05,6.05,0,0,1,5.3,1,4.15,4.15,0,0,1,1.08,5,5.86,5.86,0,0,1-2,1.85c-3.56,2.34-7.81,3.37-12,4.36-7.84,1.88-16.29,3.72-23.78.73" transform="translate(-90.99 -43.58)"/><path class="cls-5" d="M184.79,170.56l-5.59.53-2.8.26a3.7,3.7,0,0,1-2.81-.53c-.78-.64-1.16-1.55-1.82-2.16a6.78,6.78,0,0,0-2.28-1.45c-1.69-.71-3.57-1.07-5.25-2.08a6.64,6.64,0,0,1-2.08-2c-.54-.8-1-1.64-1.48-2.39a10.41,10.41,0,0,0-4.06-3.5,11.23,11.23,0,0,0-10.38.09h0l-.36-.92a7.42,7.42,0,0,1,3.38,0,5.5,5.5,0,0,1,3,1.78,4.88,4.88,0,0,1,1.11,3.29,4,4,0,0,1-.49,1.73,5,5,0,0,1-1.14,1.34c-3.54,2.71-7.79,3.85-11.89,4.87a93,93,0,0,1-12.55,2.42,27.16,27.16,0,0,1-12.75-1.42l.37-.93a26.07,26.07,0,0,0,12.28,1.35,91.8,91.8,0,0,0,12.41-2.4,53.07,53.07,0,0,0,6-1.76,20.54,20.54,0,0,0,5.44-2.89,3.17,3.17,0,0,0,1.28-2.36,4,4,0,0,0-.88-2.61,5.35,5.35,0,0,0-5.33-1.42l-4.54,1.11,4.18-2h0a12.11,12.11,0,0,1,11.23.08,11.22,11.22,0,0,1,4.27,3.82c1,1.62,1.71,3.39,3.3,4.32a37.54,37.54,0,0,0,5.13,2.14,7.2,7.2,0,0,1,2.39,1.59c.7.7,1.07,1.6,1.75,2.17a3.33,3.33,0,0,0,2.55.5l2.8-.21,5.61-.42Z" transform="translate(-90.99 -43.58)"/><path class="cls-1" d="M92.9,178.19a3.65,3.65,0,0,0,4.58-.19,17.23,17.23,0,0,1,1.66-1.75c1-.73,2.37-.61,3.61-.69a10.79,10.79,0,0,0,8.74-5.85c.61-1.22,1-2.54,1.54-3.78a13.85,13.85,0,0,1,12-8c-3.28,1.11-4.92,5.28-4,8.68s3.78,6,7,7.34,6.69,1.72,10.13,2.05" transform="translate(-90.99 -43.58)"/><path class="cls-5" d="M93,178.09a3.51,3.51,0,0,0,4.52-.36c.57-.58,1-1.41,1.86-1.85a6,6,0,0,1,2.6-.51,10.52,10.52,0,0,0,8.53-4.61,22.8,22.8,0,0,0,2.07-4.65,13.89,13.89,0,0,1,2.91-4.4A14.15,14.15,0,0,1,125,157.4h0l3.89-.27-3.72,1.25c-2.28.76-3.7,3.23-3.89,5.64a8.45,8.45,0,0,0,2.69,6.63,14.4,14.4,0,0,0,6.53,3.63,43.91,43.91,0,0,0,7.64,1.19l-.1,1a45.49,45.49,0,0,1-7.8-1.22,15.42,15.42,0,0,1-7-3.89,9.48,9.48,0,0,1-3-7.42,8.63,8.63,0,0,1,1.32-3.9,6.46,6.46,0,0,1,3.25-2.61l.17,1h0a13.43,13.43,0,0,0-11.77,8,23.2,23.2,0,0,1-2.21,4.72,11,11,0,0,1-9,4.7,5.56,5.56,0,0,0-2.43.42c-.73.35-1.17,1.11-1.8,1.74a3.8,3.8,0,0,1-4.93.32Z" transform="translate(-90.99 -43.58)"/><path class="cls-1" d="M185.32,176.1c-3.63.29-7.37-1.2-11.13-1.85a18.4,18.4,0,0,0-3-.29,23.79,23.79,0,0,0-5.7.87c-3.36.83-6.68,1.87-10,1.22a6.91,6.91,0,0,1-1.53-.46,4.83,4.83,0,0,1-1.76-1.16,13,13,0,0,1-1.62-2.49c-2.47-4.2-10.31-5.31-15.18-5,.8,1.58,6.45,2.07,6.4,3.84s-3,3.31-4.68,4a10.17,10.17,0,0,1-2.92.37c-3.13.22-6,1.62-9.08,2.42a16.62,16.62,0,0,1-2.71.52,20.15,20.15,0,0,1-3.88-.08,32.21,32.21,0,0,0-7.52-.34,27,27,0,0,0-4.35,1.12,14.56,14.56,0,0,1-10-.54" transform="translate(-90.99 -43.58)"/><path class="cls-5" d="M185.33,176.26a21.84,21.84,0,0,1-6.69-.8,40.14,40.14,0,0,0-6.55-1.22c-4.45-.29-8.61,1.83-13.15,2.28a12.8,12.8,0,0,1-3.44-.1,7.48,7.48,0,0,1-1.69-.47,5.42,5.42,0,0,1-1.54-.88,9.61,9.61,0,0,1-2-2.81A7.16,7.16,0,0,0,148,170a16.38,16.38,0,0,0-6.1-2.21,28.92,28.92,0,0,0-6.57-.38h0l.42-.72a2.71,2.71,0,0,0,1.12.8c.49.23,1,.43,1.56.63s1.09.39,1.64.62a5.13,5.13,0,0,1,1.63,1,1.72,1.72,0,0,1,.34.48,1.62,1.62,0,0,1,.1.64,2.4,2.4,0,0,1-.32,1,4.74,4.74,0,0,1-1.27,1.39,13.33,13.33,0,0,1-3.12,1.74,10.54,10.54,0,0,1-3.53.5,18.35,18.35,0,0,0-3.32.64c-2.19.62-4.35,1.5-6.65,2-4.72,1-9.31-1.06-13.8-.13a33.07,33.07,0,0,0-3.31.89,14.48,14.48,0,0,1-3.45.64,13.83,13.83,0,0,1-6.83-1.19l.13-.26a13.62,13.62,0,0,0,6.68,1.06c2.29-.08,4.38-1.14,6.69-1.6,4.68-1,9.31,1,13.75,0,2.23-.48,4.35-1.37,6.59-2a18.17,18.17,0,0,1,3.46-.72,9.74,9.74,0,0,0,3.28-.48,12.7,12.7,0,0,0,2.89-1.66,4,4,0,0,0,1-1.14,1.57,1.57,0,0,0,.19-.63.51.51,0,0,0-.2-.43,9.35,9.35,0,0,0-2.93-1.34c-.55-.2-1.1-.39-1.65-.64a3.39,3.39,0,0,1-1.61-1.24l-.43-.7.85,0h0a29.8,29.8,0,0,1,6.8.48,21.17,21.17,0,0,1,3.3.89,12.75,12.75,0,0,1,3.09,1.54,7.91,7.91,0,0,1,2.42,2.53,9,9,0,0,0,1.83,2.64c1.65,1.3,4,1.53,6.13,1.36,4.37-.36,8.62-2.45,13.24-2.11s8.72,2.46,13.19,2.19Z" transform="translate(-90.99 -43.58)"/></g><g id="montagnes"><polyline class="cls-1" points="9.59 41.55 17.81 21.2 22.86 28.15 30.63 12.94 34.66 12.94 40.15 1.45 43.67 14.8 46.77 16.97 50.63 26.6 54.85 16.66 60.44 3 64.17 9.83 68.83 11.38 71 21.15 74.13 26.73 77.96 30.27 79.66 33.25 82.11 42.6"/><path class="cls-2" d="M100.46,85.08c.62-1.72,1.3-3.42,2-5.13l2-5.12q1.95-5.13,4-10.24l.33-.84.53.74,5.06,7-.85.07,7.76-15.22.14-.27h4.34l-.45.28,5.49-11.49.58-1.23.35,1.32,3.52,13.35L135,58,138,60.15l.12.08.06.14L142.08,70h-.92l2.5-5.88c.82-2,1.68-3.92,2.47-5.89L151,46.39l.4-1,.5.92,3.73,6.83-.28-.23L160,54.49l.27.09.06.28,2.18,9.77,0-.14,3.13,5.58-.1-.13,3.83,3.55.05.05,0,.07,1.7,3,0,.07v0l2.19,9.43-.44.11L170.16,77l.05.12-1.7-3,.1.12-3.83-3.54-.06-.06,0-.06L161.55,65l0-.07,0-.07-2.17-9.77.33.37L155,53.89l-.19-.07-.09-.17L151,46.82l.9,0L147.05,58.6c-.79,2-1.64,3.93-2.47,5.89l-2.5,5.89-.48,1.11-.45-1.12-3.86-9.63.18.22-3.1-2.17-.15-.11,0-.17-3.53-13.36.94.09-5.48,11.49L126,57h-4.35l.44-.28L114.3,72l-.37.73-.48-.66-5.06-7,.87-.1Q107.18,70,105,75.09l-2.14,5c-.73,1.68-1.42,3.37-2.17,5Z" transform="translate(-90.99 -43.58)"/><polyline class="cls-1" points="39.99 31.7 45.63 17.38 50.21 13.55 52.92 6.48 57.89 17.68 65.37 23.27"/><polygon class="cls-2" points="39.8 31.62 45.16 17.2 45.2 17.09 45.31 17 49.89 13.17 49.74 13.37 52.45 6.3 52.89 5.17 53.38 6.28 58.35 17.48 58.19 17.28 65.48 23.12 65.27 23.41 57.59 18.08 57.49 18.01 57.43 17.88 52.47 6.68 53.39 6.66 50.68 13.73 50.63 13.85 50.53 13.94 45.95 17.77 46.09 17.57 40.17 31.77 39.8 31.62"/></g></svg>